# xmcd
#
# Track frame offsets:
#	150
#	17347
#	33957
#	54289
#	71533
#	85473
#	105415
#	121522
#	138549
#	154088
#	175550
#	191490
#	205139
#	216874
#	239091
#	254400
#	268585
#	278669
#	293406
#	304638
#	333890
#
# Disc length: 4726 seconds
#
# Revision: 0
# Processed by: cddbd v1.5.2PL0 Copyright (c) Steve Scherf et al.
# Submitted via: VUPlayer 2.46
#
DISCID=1b127415
DTITLE=Billie Holiday - Lady Sings The Blues - The Entertainers
DYEAR=1987
DGENRE=Blues
TTITLE0=Moonlight in Vermont
TTITLE1=Love is Here to Stay
TTITLE2=Stars Fell on Alabama
TTITLE3=But Not for Me
TTITLE4=Strange Fruit
TTITLE5=Speak Low
TTITLE6=A Fine Romance
TTITLE7=Lady Sings the Blues
TTITLE8=I Wished on the Moon
TTITLE9=Sophisticated Lady
TTITLE10=Cheek to Cheek
TTITLE11=April in Paris
TTITLE12=Love Me or Leave Me
TTITLE13=When your Lover has Gone
TTITLE14=Let's Call the Whole Thing Off
TTITLE15=Willow Weep for Me
TTITLE16=Too Marvellous for Words
TTITLE17=Say it Isn't So
TTITLE18=I Cried for You
TTITLE19=God Bless the Child
TTITLE20=Data Track
EXTD=
EXTT0=
EXTT1=
EXTT2=
EXTT3=
EXTT4=
EXTT5=
EXTT6=
EXTT7=
EXTT8=
EXTT9=
EXTT10=
EXTT11=
EXTT12=
EXTT13=
EXTT14=
EXTT15=
EXTT16=
EXTT17=
EXTT18=
EXTT19=
EXTT20=
PLAYORDER=
